<svg width="708" height="492" viewBox="0 0 708 492" fill="none" xmlns="http://www.w3.org/2000/svg" class="absolute top-0 z-20 w-full h-full"><path d="M39.3455 6.35517C86.8102 4.63557 186.826 2 354 2C521.174 2 621.19 4.63557 668.655 6.35517C687.01 7.02018 701.52 21.2644 702.352 39.591C703.965 75.1067 706 140.777 706 246C706 351.895 703.374 418.824 701.313 455.032C700.263 473.487 685.3 487.562 666.766 487.89C619.428 488.729 520.269 490 354 490C186.826 490 86.8102 487.364 39.3455 485.645C20.9898 484.98 6.47984 470.736 5.64779 452.409C4.03533 416.893 2 351.223 2 246C2 140.777 4.03533 75.1067 5.64779 39.591C6.47984 21.2644 20.9898 7.02018 39.3455 6.35517Z" stroke="#ffffff80" style="stroke:#ffffff80;stroke-opacity:1" stroke-width="4"></path></svg>