<svg xmlns="http://www.w3.org/2000/svg" xmlns:xlink="http://www.w3.org/1999/xlink" width="250" zoomAndPan="magnify" viewBox="0 0 187.5 187.499992" height="250" preserveAspectRatio="xMidYMid meet" version="1.0"><defs><clipPath id="3ac861689a"><path d="M 20.6875 21.671875 L 162 21.671875 L 162 134 L 20.6875 134 Z M 20.6875 21.671875 " clip-rule="nonzero"/></clipPath><clipPath id="7821f075a8"><path d="M 50 88 L 165 88 L 165 165.289062 L 50 165.289062 Z M 50 88 " clip-rule="nonzero"/></clipPath></defs><g clip-path="url(#3ac861689a)"><path fill="#ffffff" d="M 50.601562 89.949219 C 50.601562 89.148438 50.761719 88.351562 51.070312 87.609375 C 51.378906 86.867188 51.828125 86.195312 52.398438 85.628906 C 52.96875 85.0625 53.644531 84.613281 54.386719 84.308594 C 55.128906 84.003906 55.925781 83.847656 56.730469 83.851562 L 66.886719 83.886719 C 68.507812 83.886719 70.0625 84.53125 71.207031 85.675781 C 72.351562 86.820312 72.996094 88.375 72.996094 89.992188 L 72.996094 128.40625 C 74.140625 128.066406 75.609375 127.703125 77.214844 127.328125 C 78.332031 127.066406 79.328125 126.433594 80.039062 125.535156 C 80.75 124.636719 81.136719 123.523438 81.136719 122.375 L 81.136719 74.726562 C 81.136719 73.105469 81.78125 71.550781 82.925781 70.40625 C 84.074219 69.261719 85.625 68.617188 87.246094 68.617188 L 97.425781 68.617188 C 99.042969 68.617188 100.597656 69.261719 101.742188 70.40625 C 102.890625 71.550781 103.53125 73.105469 103.53125 74.726562 L 103.53125 118.949219 C 103.53125 118.949219 106.082031 117.917969 108.5625 116.871094 C 109.484375 116.480469 110.273438 115.828125 110.824219 114.992188 C 111.378906 114.15625 111.675781 113.179688 111.675781 112.179688 L 111.675781 59.457031 C 111.675781 57.835938 112.320312 56.285156 113.464844 55.140625 C 114.609375 53.992188 116.164062 53.351562 117.78125 53.347656 L 127.960938 53.347656 C 129.582031 53.347656 131.136719 53.992188 132.28125 55.136719 C 133.425781 56.285156 134.070312 57.835938 134.070312 59.457031 L 134.070312 102.871094 C 142.894531 96.476562 151.835938 88.785156 158.933594 79.535156 C 159.964844 78.191406 160.644531 76.613281 160.917969 74.945312 C 161.1875 73.273438 161.042969 71.5625 160.496094 69.964844 C 157.210938 60.511719 151.988281 51.847656 145.164062 44.53125 C 138.335938 37.214844 130.058594 31.398438 120.859375 27.464844 C 111.660156 23.53125 101.738281 21.558594 91.730469 21.675781 C 81.726562 21.796875 71.855469 24.003906 62.75 28.15625 C 53.644531 32.308594 45.507812 38.316406 38.859375 45.792969 C 32.210938 53.273438 27.195312 62.054688 24.136719 71.582031 C 21.074219 81.109375 20.039062 91.171875 21.089844 101.125 C 22.140625 111.074219 25.261719 120.695312 30.246094 129.375 C 31.113281 130.871094 32.390625 132.089844 33.925781 132.886719 C 35.460938 133.679688 37.195312 134.023438 38.917969 133.867188 C 40.84375 133.699219 43.242188 133.457031 46.089844 133.125 C 47.332031 132.984375 48.476562 132.390625 49.308594 131.460938 C 50.140625 130.527344 50.601562 129.324219 50.601562 128.074219 L 50.601562 89.949219 " fill-opacity="1" fill-rule="nonzero"/></g><g clip-path="url(#7821f075a8)"><path fill="#a6a6a6" d="M 50.378906 151.5625 C 61.109375 159.367188 73.789062 164.054688 87.015625 165.097656 C 100.242188 166.148438 113.503906 163.511719 125.324219 157.492188 C 137.148438 151.46875 147.078125 142.292969 154.007812 130.980469 C 160.941406 119.667969 164.609375 106.65625 164.605469 93.386719 C 164.605469 91.730469 164.527344 90.09375 164.417969 88.464844 C 138.140625 127.65625 89.621094 145.976562 50.382812 151.554688 " fill-opacity="1" fill-rule="nonzero"/></g></svg>